<?xml version="1.0" encoding="UTF-8"?><svg id="Layer_2" xmlns="http://www.w3.org/2000/svg" viewBox="0 0 2652.9 736.17"><defs><style>.cls-1{letter-spacing:.39em;}.cls-2{font-family:Widescreen-ExSemiBold, Widescreen;font-size:90.47px;font-weight:600;}.cls-3{letter-spacing:.38em;}.cls-4{letter-spacing:.36em;}.cls-5{letter-spacing:.3em;}.cls-6{letter-spacing:.4em;}.cls-7{letter-spacing:.4em;}.cls-8{letter-spacing:.39em;}</style></defs><g id="Layer_1-2"><path d="M904.41,162.8h-83.66c-1.66,0-3-1.34-3-3v-59.76c0-1.66,1.34-3,3-3h248.59c1.66,0,3,1.34,3,3v59.76c0,1.66-1.34,3-3,3h-83.66c-1.66,0-3,1.34-3,3v347.9c0,1.66-1.34,3-3,3h-69.27c-1.66,0-3-1.34-3-3V165.8c0-1.66-1.34-3-3-3Z"/><path d="M1107.44,195.66h68.1c1.66,0,3,1.34,3,3v315.05c0,1.66-1.34,3-3,3h-68.1c-1.66,0-3-1.34-3-3V198.66c0-1.66,1.34-3,3-3ZM1107.99,97.04h68.1c1.66,0,3,1.34,3,3v59.8c0,1.66-1.34,3-3,3h-68.1c-1.66,0-3-1.34-3-3v-59.8c0-1.66,1.34-3,3-3Z"/><path d="M1563.18,195.66h68.1c1.66,0,3,1.34,3,3v315.05c0,1.66-1.34,3-3,3h-68.1c-1.66,0-3-1.34-3-3V198.66c0-1.66,1.34-3,3-3ZM1563.73,97.04h68.1c1.66,0,3,1.34,3,3v59.8c0,1.66-1.34,3-3,3h-68.1c-1.66,0-3-1.34-3-3v-59.8c0-1.66,1.34-3,3-3Z"/><path d="M1245.91,97.04h68.18c1.66,0,3,1.34,3,3v174.31c0,3.05,4.02,4.16,5.58,1.54,25.2-42.33,72.93-126.81,104.26-177.43.55-.88,1.51-1.41,2.55-1.41h79.39c2.39,0,3.82,2.66,2.5,4.65l-104.3,157.98c-.56.84-.65,1.91-.25,2.84l107.97,249.99c.86,1.98-.6,4.19-2.75,4.19h-76.92c-1.22,0-2.32-.74-2.78-1.87l-75.4-185.99c-.89-2.19-3.85-2.54-5.23-.61l-34.06,47.9c-.36.51-.56,1.12-.56,1.74v135.84c0,1.66-1.34,3-3,3h-68.18c-1.66,0-3-1.34-3-3V100.04c0-1.66,1.34-3,3-3Z"/><path d="M1699.73,97.81c0-1.66,1.34-3,3-3h84.89c93.22,0,137.38,67.39,137.38,198.98,0,143.5-39.28,222.92-144.53,222.92h-77.75c-1.66,0-3-1.34-3-3V97.81ZM1735.35,482.23c0,1.66,1.34,3,3,3h39.94c83.75,0,109.75-67.4,109.75-189.36s-32.69-169.39-109.13-169.39h-40.56c-1.66,0-3,1.34-3,3v352.75Z"/><path d="M2027.04,374.98l-33.14,139.42c-.32,1.35-1.53,2.31-2.92,2.31h-29.33c-1.95,0-3.38-1.82-2.91-3.71,9.95-40.59,98.28-400.89,102.38-417.59.09-.36.4-.6.77-.6h43.22c1.37,0,2.57.93,2.91,2.26l105.65,415.9c.48,1.9-.95,3.74-2.91,3.74h-31.98c-1.39,0-2.59-.95-2.92-2.3l-33.64-139.44c-.33-1.35-1.53-2.3-2.92-2.3h-109.34c-1.39,0-2.6.95-2.92,2.31ZM2132.72,336.78c-26.97-109.05-43.6-176.23-48.93-207.31-.07-.38-.39-.65-.78-.65h0c-.39,0-.72.27-.78.65-6.04,35.79-24.2,114.26-46.27,207.34-.45,1.88.98,3.7,2.92,3.7h90.93c1.95,0,3.38-1.84,2.91-3.73Z"/><path d="M2280.13,127.08h-89.47c-1.66,0-3-1.34-3-3v-26.27c0-1.66,1.34-3,3-3h220.46c1.66,0,3,1.34,3,3v26.27c0,1.66-1.34,3-3,3h-89.47c-1.66,0-3,1.34-3,3v383.63c0,1.66-1.34,3-3,3h-29.52c-1.66,0-3-1.34-3-3V130.08c0-1.66-1.34-3-3-3Z"/><path d="M2459.36,374.98l-33.14,139.42c-.32,1.35-1.53,2.31-2.92,2.31h-29.33c-1.95,0-3.38-1.82-2.91-3.71,9.95-40.59,98.28-400.89,102.38-417.59.09-.36.4-.6.77-.6h43.22c1.37,0,2.57.93,2.91,2.26l105.65,415.9c.48,1.9-.95,3.74-2.91,3.74h-31.98c-1.39,0-2.59-.95-2.92-2.3l-33.64-139.44c-.33-1.35-1.53-2.3-2.92-2.3h-109.34c-1.39,0-2.6.95-2.92,2.31ZM2565.05,336.78c-26.97-109.05-43.6-176.23-48.93-207.31-.07-.38-.39-.65-.78-.65h0c-.39,0-.72.27-.78.65-6.04,35.79-24.2,114.26-46.27,207.34-.45,1.88.98,3.7,2.92,3.7h90.93c1.95,0,3.38-1.84,2.91-3.73Z"/><path d="M341.24,1.09c257.28-19.23,460.76,220.16,386.73,470.59-86.12,291.35-472.54,359.77-655.54,115.63C-101.51,355.22,57.38,22.3,341.24,1.09ZM339.15,32.53C87.01,52.24-59.57,354.54,93.41,562.13c130.21,176.7,381.25,196.26,530.26,31.66C833.9,361.55,645.21,8.61,339.15,32.53Z"/><path d="M287.15,107.4l-37.79,112.04,74.53,72.38,98.06-.38,69.61-68.8.13-10.52-35.99-102.5,2.61-4.05,89.42-6.16,91.17,83.87-7.93,100.21-115.94-39.51-68.11,70.34.49,103.45,68.31,72.29,115.24-36.78,7.47,92.37c-25.67,32.76-56.88,60.71-87.22,89.08l-94.25-7.44,37.03-112.19-71.67-72.23-103.84.89-67.01,69.41,31.49,114.14-90.73,8.06-86.39-83.57c-2.32-33.42,2.8-67.23,5.21-100.58l114.29,39.12,69.05-68.48c-.43-32.78,4.44-71.73,1.26-103.9-.29-2.97.23-5.95-2.11-8.37l-68.31-65.96-113.09,41.96-3.2-5.25-4.24-96,91.66-84.91,90.77,7.97ZM138.31,196.48v42.98l76.5-27.27,26.26-76.47-37.73-2.09-65.03,62.86ZM601.61,239.46l4.22-40.84-69.31-64.98-35.52,1.01,26.22,77.54,74.39,27.27ZM415.04,323.32h-88.05v85.96h88.05v-85.96ZM200.15,600.05c5.45,1.55,25.9,0,33.54,0,.73,0,3.29-2.46,5.15-2.25l-21.35-74.84-76.02-25.66c-1.92,13.76-5.31,27.95-2.09,41.92,10.91,7.18,53.64,58.81,60.76,60.84ZM601.61,497.32l-77.07,25.66-21.46,74.97c18.64,1.18,32.42,7.43,48.25-5.21,19.09-15.25,35.27-40.55,54.11-57.08l-3.83-38.33Z"/><text class="cls-2" transform="translate(904.98 632.91)"><tspan class="cls-5" x="0" y="0">T</tspan><tspan class="cls-4" x="99.42" y="0">A</tspan><tspan class="cls-6" x="217.21" y="0">C</tspan><tspan class="cls-7" x="337.26" y="0">TI</tspan><tspan class="cls-8" x="507.79" y="0">C</tspan><tspan class="cls-7" x="626.3" y="0">AL </tspan><tspan class="cls-1" x="906.66" y="0">F</tspan><tspan class="cls-7" x="1003.37" y="0">O</tspan><tspan class="cls-3" x="1132.1" y="0">O</tspan><tspan class="cls-7" x="1259.03" y="0">T</tspan><tspan class="cls-3" x="1367.32" y="0">B</tspan><tspan class="cls-7" x="1472.99" y="0">ALL</tspan></text></g></svg>